# xmcd
#
# Track frame offsets: 
#        150
#        23223
#        47367
#        71322
#        88966
#        113169
#        137371
#        166370
#        187249
#        212691
#
# Disc length: 3181 seconds
#
# Revision: 0
# Processed by: cddbd v1.5.2PL0 Copyright (c) Steve Scherf et al.
# Submitted via: ExactAudioCopy v1.2
#
DISCID=850c6b0a
DTITLE=Jabo and Rue Davis - Wanted For Playing Nothing But The Blues
DYEAR=2018
DGENRE=Blues
TTITLE0=Club Women
TTITLE1=Steal Away
TTITLE2=The Hurting Blues
TTITLE3=You Got All I Need
TTITLE4=Cheating Blues
TTITLE5=It's Getting Late
TTITLE6=You Didn't Hurt Me
TTITLE7=Please Take Me
TTITLE8=Home Wrecking Demon
TTITLE9=My No Good Friend
EXTD=
EXTT0=
EXTT1=
EXTT2=
EXTT3=
EXTT4=
EXTT5=
EXTT6=
EXTT7=
EXTT8=
EXTT9=
PLAYORDER=
